<svg width="33" height="34" viewBox="0 0 33 34" fill="none" xmlns="http://www.w3.org/2000/svg">
<path d="M16.642 0.0257873C15.3482 -0.0783447 14.0485 0.133904 12.855 0.644218C11.6615 1.15453 10.6101 1.94758 9.79155 2.95494C8.97299 3.9623 8.41183 5.1537 8.1565 6.42634C7.90118 7.69899 7.95935 9.01465 8.326 10.2598L0.352 18.2318C0.126892 18.4566 0.000280083 18.7616 0 19.0798V24.7998C0 25.118 0.126428 25.4233 0.351472 25.6483C0.576516 25.8734 0.88174 25.9998 1.2 25.9998H6.8C7.11826 25.9998 7.42348 25.8734 7.64853 25.6483C7.87357 25.4233 8 25.118 8 24.7998V21.9998H11.8C12.1183 21.9998 12.4235 21.8734 12.6485 21.6483C12.8736 21.4233 13 21.118 13 20.7998V17.4138L14.47 15.9438C14.0392 15.4162 13.6582 14.8497 13.332 14.2518L11.352 16.2338C11.1269 16.4586 11.0003 16.7636 11 17.0818V19.9998H7.202C6.88374 19.9998 6.57852 20.1262 6.35347 20.3513C6.12843 20.5763 6.002 20.8815 6.002 21.1998V23.9998H2.002V19.4138L10.642 10.7738L10.406 10.1678C10.1057 9.39214 9.96987 8.56254 10.0072 7.73163C10.0444 6.90071 10.254 6.08661 10.6226 5.34099C10.9912 4.59536 11.5107 3.93448 12.1483 3.40027C12.7858 2.86607 13.5274 2.4702 14.326 2.23779C14.986 1.39179 15.766 0.645787 16.64 0.0257873H16.642ZM23.002 8.49979C23.199 8.49979 23.394 8.46099 23.576 8.38561C23.758 8.31022 23.9234 8.19974 24.0627 8.06045C24.2019 7.92116 24.3124 7.7558 24.3878 7.57381C24.4632 7.39182 24.502 7.19677 24.502 6.99979C24.502 6.8028 24.4632 6.60775 24.3878 6.42576C24.3124 6.24377 24.2019 6.07841 24.0627 5.93913C23.9234 5.79984 23.758 5.68935 23.576 5.61397C23.394 5.53859 23.199 5.49979 23.002 5.49979C22.6042 5.49979 22.2226 5.65782 21.9413 5.93913C21.66 6.22043 21.502 6.60196 21.502 6.99979C21.502 7.39761 21.66 7.77914 21.9413 8.06045C22.2226 8.34175 22.6042 8.49979 23.002 8.49979ZM14.002 8.99979C14.0021 7.44494 14.405 5.91665 15.1715 4.56385C15.938 3.21105 17.0419 2.0799 18.3756 1.28063C19.7092 0.481362 21.2272 0.041245 22.7816 0.00317144C24.336 -0.0349021 25.8737 0.330367 27.2449 1.06338C28.6162 1.79639 29.7741 2.87215 30.6059 4.18579C31.4377 5.49944 31.9149 7.00618 31.9912 8.55915C32.0674 10.1121 31.74 11.6584 31.0409 13.0472C30.3418 14.436 29.2948 15.62 28.002 16.4838V20.5838L29.568 22.1518C29.7927 22.3768 29.9189 22.6818 29.9189 22.9998C29.9189 23.3178 29.7927 23.6228 29.568 23.8478L27.416 25.9998L29.552 28.1338C29.6713 28.2532 29.7641 28.3965 29.8243 28.5542C29.8845 28.7119 29.9108 28.8806 29.9013 29.0491C29.8919 29.2177 29.847 29.3824 29.7696 29.5324C29.6921 29.6824 29.5839 29.8144 29.452 29.9198L24.752 33.6798C24.5392 33.8502 24.2746 33.943 24.002 33.943C23.7294 33.943 23.4648 33.8502 23.252 33.6798L18.452 29.8398C18.3117 29.7274 18.1984 29.585 18.1205 29.423C18.0426 29.261 18.0021 29.0835 18.002 28.9038V16.4838C16.7707 15.662 15.7614 14.5489 15.0636 13.2433C14.3659 11.9378 14.0012 10.4801 14.002 8.99979ZM23.002 1.99979C21.4605 1.99909 19.9618 2.50726 18.7387 3.44543C17.5155 4.38359 16.6362 5.69928 16.2373 7.18829C15.8384 8.6773 15.9421 10.2564 16.5324 11.6804C17.1227 13.1044 18.1666 14.2937 19.502 15.0638C19.654 15.1516 19.7803 15.2778 19.868 15.4298C19.9558 15.5818 20.002 15.7543 20.002 15.9298V28.5198L24.002 31.7198L27.504 28.9178L25.436 26.8478C25.2113 26.6228 25.0851 26.3178 25.0851 25.9998C25.0851 25.6818 25.2113 25.3768 25.436 25.1518L27.588 22.9998L26.354 21.7658C26.1289 21.541 26.0023 21.2359 26.002 20.9178V15.9298C26.002 15.7543 26.0482 15.5818 26.136 15.4298C26.2238 15.2778 26.35 15.1516 26.502 15.0638C27.8374 14.2937 28.8813 13.1044 29.4716 11.6804C30.0619 10.2564 30.1656 8.6773 29.7667 7.18829C29.3678 5.69928 28.4885 4.38359 27.2653 3.44543C26.0422 2.50726 24.5435 1.99909 23.002 1.99979Z" fill="white"/>
</svg>
