<svg width="318" height="318" viewBox="0 0 318 318" fill="#1C2842" xmlns="http://www.w3.org/2000/svg">
<path d="M157.676 35.8882C157.179 36.385 156.682 37.2417 156.548 37.784C156.413 38.3696 156.322 45.7704 156.413 54.2535C156.548 69.4583 156.548 69.7295 157.541 70.6774C158.94 72.122 161.15 72.0308 162.504 70.4518L163.541 69.2328V37.2007L162.413 36.1184C161.062 34.7148 158.94 34.6259 157.676 35.8882Z" fill="black"/>
<path d="M120.904 55.5158C119.685 56.6893 119.505 58.1339 120.362 59.6218C121.536 61.652 132.68 73.3821 133.717 73.6532C136.198 74.2844 138.725 71.983 138.14 69.6384C137.868 68.6449 128.032 57.3205 125.55 55.1558C124.245 54.0256 122.212 54.1624 120.904 55.5158Z" fill="black"/>
<path d="M189.034 62.012C182.267 66.8858 178.972 69.5472 178.701 70.3584C177.707 73.0197 180.28 75.8634 182.807 74.8699C184.295 74.2844 202.343 61.4241 203.154 60.3874C204.057 59.1683 203.831 56.9126 202.658 55.8302C200.632 53.9367 199.639 54.3879 189.034 62.012Z" fill="black"/>
<path d="M105.791 80.6005C102.181 81.1861 98.6176 83.1274 97.6242 85.0665C96.4051 87.4134 93.6093 107.581 92.2103 124.319C91.4424 132.937 91.4424 152.97 92.1647 159.286C93.7893 173.272 97.0386 182.343 102.361 187.757C104.754 190.193 105.385 190.601 107.278 190.869C108.452 191.049 109.4 191.455 109.4 191.726C109.4 192.043 108.001 201.155 106.242 211.985C104.528 222.813 103.084 231.793 103.084 231.927C103.084 232.107 101.413 232.107 99.3832 231.927C91.1257 231.296 83.1416 233.189 79.5301 236.664C77.0487 239.057 76.5064 240.996 77.4087 244.245C78.9878 249.975 89.1388 255.48 102.088 257.645C108.586 258.727 119.189 258.413 123.429 257.06C127.309 255.797 130.016 253.81 131.099 251.42C132.226 248.848 132.181 247.631 130.736 244.742C128.526 240.456 122.57 236.846 113.501 234.274C110.343 233.417 109.938 233.146 110.072 232.378C110.569 230.213 116.163 194.524 116.163 193.531C116.163 192.494 116.254 192.494 119.006 192.763C121.533 192.989 122.164 192.854 124.42 191.769C131.775 188.16 138.543 179.317 144.273 165.826C149.19 154.185 154.65 134.828 157.899 117.413C158.35 115.021 158.847 113.036 159.027 113.036C159.161 113.036 159.884 116.014 160.56 119.669C162.276 128.377 166.154 143.762 168.501 151.161C174.141 168.622 180.502 180.668 187.587 187.347C192.055 191.498 195.213 193.032 198.868 192.806L201.575 192.672L204.642 211.848C206.312 222.407 207.8 231.565 207.936 232.196C208.162 233.324 208.025 233.415 204.373 234.317C200.176 235.354 194.085 238.061 191.198 240.228C186.866 243.431 185.242 247.492 186.912 251.192C187.994 253.719 190.161 255.389 194.131 256.877C196.703 257.825 198.1 258.051 203.967 258.231C224.36 258.862 242.363 250.424 240.919 240.859C240.467 237.881 237.581 235.039 233.475 233.64C229.549 232.287 223.278 231.565 218.721 231.927C216.645 232.107 214.977 232.153 214.977 232.018C214.977 231.884 213.578 222.904 211.819 212.076C210.106 201.248 208.661 192.088 208.661 191.772C208.661 191.412 209.518 191.095 210.826 190.869C212.676 190.598 213.307 190.193 215.697 187.711C222.239 180.944 225.668 168.626 226.482 148.91C227.067 135.689 224.903 109.16 221.745 90.2548C220.933 85.4721 220.842 85.2465 219.129 83.6219C216.196 80.915 213.489 80.3271 204.149 80.3727C188.808 80.4638 170.265 84.5698 161.602 89.7581L159.029 91.3371L156.457 89.7581C146.08 83.533 118.603 78.5703 105.791 80.6005ZM124.605 88.0013C130.561 88.8125 138.139 90.3915 143.781 92.1073C148.202 93.4152 153.978 96.0765 154.294 96.89C154.386 97.2044 153.934 100.499 153.258 104.245C152.13 110.381 151.95 111.013 151.136 110.924C149.423 110.698 104.211 103.568 102.904 103.3L101.641 103.028L101.958 100.23C102.092 98.7402 102.589 95.4477 102.995 92.9663L103.763 88.5003L105.567 87.958C108.135 87.1445 118.377 87.1878 124.605 88.0013ZM212.09 87.8213C213.173 88.0924 214.166 88.4525 214.257 88.6325C214.617 89.2181 216.422 102.709 216.196 102.935C215.971 103.161 171.258 110.425 167.378 110.876L166.024 111.01L164.762 104.017L163.543 97.0244L164.717 96.031C168.011 93.4152 181.412 89.6236 193.233 87.999C198.736 87.279 209.429 87.1446 212.09 87.8213ZM126.138 114.171C139.313 116.246 150.232 118.051 150.323 118.185C150.594 118.457 149.104 125.675 147.074 133.796C140.352 160.596 132.003 178.237 123.071 184.373C120.861 185.907 120.23 185.952 113.46 184.779C108.452 183.922 108.226 183.831 106.782 182.206C103.532 178.506 101.142 171.83 99.6088 162.039C98.4809 155 98.4809 131.629 99.6088 119.808C100.511 110.422 100.557 110.334 101.505 110.334C101.865 110.334 112.963 112.049 126.138 114.171ZM217.415 111.101C217.55 111.553 218.001 115.567 218.406 120.036C219.4 130.187 219.58 154.417 218.678 160.642C217.233 170.659 214.572 178.465 211.279 182.209C209.834 183.833 209.609 183.924 204.601 184.781C197.833 185.955 197.2 185.909 194.99 184.376C187.726 179.367 180.507 166.327 174.822 147.65C171.798 137.904 167.198 118.728 167.692 118.188C167.964 117.917 214.12 110.473 215.971 110.381C216.738 110.334 217.233 110.605 217.415 111.101ZM105.203 239.824C108.406 240.367 112.512 241.269 114.363 241.9C118.377 243.208 123.206 245.915 124.199 247.451C124.876 248.442 124.83 248.533 124.065 249.164C122.62 250.201 118.876 251.103 114.77 251.42C104.979 252.097 90.2257 248.308 85.4885 243.885C83.8183 242.351 83.9095 241.675 85.7597 240.727C89.6834 238.788 96.6307 238.473 105.203 239.824ZM230.544 240.05C234.83 241.495 234.83 242.757 230.453 245.375C223.009 249.798 210.466 252.325 201.488 251.194C197.065 250.652 193.322 249.299 193.322 248.216C193.322 247.405 195.983 245.284 198.736 243.885C202.165 242.126 205.548 241.132 211.593 240.004C218.632 238.742 226.798 238.742 230.544 240.05Z" fill="#1C2842"/>
<path d="M115.265 127.614C114.679 127.931 113.865 128.696 113.505 129.33C111.881 132.262 115.896 135.557 118.739 133.57C120.861 132.082 120.364 128.382 117.883 127.525C117.115 127.254 116.484 127.029 116.438 127.029C116.392 127.029 115.896 127.3 115.265 127.614Z" fill="black"/>
<path d="M122.483 139.661C121.941 140.203 121.581 141.151 121.581 142.142C121.581 145.255 125.01 146.654 127.22 144.398C129.476 142.188 128.123 138.759 124.965 138.759C123.974 138.759 123.026 139.121 122.483 139.661Z" fill="#1C2842"/>
<path d="M111.159 147.739C109.851 148.775 109.76 151.393 110.979 152.747C112.241 154.146 114.948 153.966 116.121 152.476C117.384 150.897 117.295 149.363 115.941 148.01C114.634 146.656 112.649 146.519 111.159 147.739Z" fill="#1C2842"/>
<path d="M119.596 159.109C117.521 160.733 118.423 164.748 120.904 164.974C123.657 165.199 125.19 163.98 125.19 161.59C125.19 159.831 123.52 158.161 121.807 158.161C121.267 158.161 120.273 158.566 119.596 159.109Z" fill="#1C2842"/>
<path d="M199.819 127.525C197.697 128.562 197.292 131.451 198.962 133.119C200.675 134.878 203.565 134.338 204.556 132.126C205.278 130.547 205.187 129.916 204.059 128.651C202.842 127.3 201.172 126.894 199.819 127.525Z" fill="black"/>
<path d="M190.613 139.661C189.26 141.014 189.394 143.407 190.884 144.578C192.463 145.84 194.268 145.797 195.487 144.487C197.652 142.231 196.164 138.756 193.097 138.756C192.103 138.759 191.156 139.121 190.613 139.661Z" fill="#1C2842"/>
<path d="M202.119 148.01C200.766 149.363 200.674 150.897 201.939 152.476C203.88 154.957 207.941 153.469 207.941 150.265C207.938 147.107 204.375 145.708 202.119 148.01Z" fill="black"/>
<path d="M194.042 159.109C191.966 160.779 192.914 164.794 195.487 164.974C198.193 165.154 199.638 163.98 199.638 161.544C199.638 159.831 197.968 158.161 196.254 158.161C195.712 158.161 194.719 158.566 194.042 159.109Z" fill="#1C2842"/>
<path d="M159 0C246.45 0 318 71.55 318 159C318 246.45 246.45 318 159 318C71.55 318 0 246.45 0 159C0 71.55 71.55 0 159 0ZM159 31.8C128.79 31.8 101.76 41.34 81.09 58.83L259.17 236.91C275.07 214.65 286.2 187.62 286.2 159C286.2 89.04 228.96 31.8 159 31.8ZM236.91 259.17L58.83 81.09C41.34 101.76 31.8 128.79 31.8 159C31.8 228.96 89.04 286.2 159 286.2C189.21 286.2 216.24 276.66 236.91 259.17Z" fill="#1C2842"/>
</svg>
