<svg width="149" height="149" viewBox="0 0 149 149" fill="#1C2842" xmlns="http://www.w3.org/2000/svg">
<path d="M41.125 73.5C46.993 73.5 51.75 68.6031 51.75 62.5625C51.75 56.5219 46.993 51.625 41.125 51.625C35.257 51.625 30.5 56.5219 30.5 62.5625C30.5 68.6031 35.257 73.5 41.125 73.5Z" fill="#1C2842"/>
<path d="M60.25 56C66.118 56 70.875 51.1031 70.875 45.0625C70.875 39.0219 66.118 34.125 60.25 34.125C54.382 34.125 49.625 39.0219 49.625 45.0625C49.625 51.1031 54.382 56 60.25 56Z" fill="#1C2842"/>
<path d="M85.75 56C91.618 56 96.375 51.1031 96.375 45.0625C96.375 39.0219 91.618 34.125 85.75 34.125C79.882 34.125 75.125 39.0219 75.125 45.0625C75.125 51.1031 79.882 56 85.75 56Z" fill="#1C2842"/>
<path d="M104.875 73.5C110.743 73.5 115.5 68.6031 115.5 62.5625C115.5 56.5219 110.743 51.625 104.875 51.625C99.007 51.625 94.25 56.5219 94.25 62.5625C94.25 68.6031 99.007 73.5 104.875 73.5Z" fill="#1C2842"/>
<path d="M95.6952 86.0125C91.9977 81.55 88.8952 77.7438 85.1552 73.2812C83.2002 70.9187 80.6927 68.5563 77.7177 67.5063C77.2502 67.3313 76.7827 67.2 76.3152 67.1125C75.2527 66.9375 74.1052 66.9375 73.0002 66.9375C71.8952 66.9375 70.7477 66.9375 69.6427 67.1563C69.1752 67.2438 68.7077 67.375 68.2402 67.55C65.2652 68.6 62.8002 70.9625 60.8027 73.325C57.1052 77.7875 54.0027 81.5938 50.2627 86.0563C44.6952 91.7875 37.8527 98.1313 39.1277 107.013C40.3602 111.475 43.4627 115.894 49.0302 117.163C52.1327 117.819 62.0352 115.238 72.5752 115.238H73.3402C83.8802 115.238 93.7827 117.775 96.8852 117.163C102.453 115.894 105.555 111.431 106.788 107.013C108.105 98.0875 101.263 91.7438 95.6952 86.0125V86.0125Z" fill="#1C2842"/>
<path d="M74.5 0C115.475 0 149 33.525 149 74.5C149 115.475 115.475 149 74.5 149C33.525 149 0 115.475 0 74.5C0 33.525 33.525 0 74.5 0ZM74.5 14.9C60.345 14.9 47.68 19.37 37.995 27.565L121.435 111.005C128.885 100.575 134.1 87.91 134.1 74.5C134.1 41.72 107.28 14.9 74.5 14.9ZM111.005 121.435L27.565 37.995C19.37 47.68 14.9 60.345 14.9 74.5C14.9 107.28 41.72 134.1 74.5 134.1C88.655 134.1 101.32 129.63 111.005 121.435Z" fill="#1C2842"/>
</svg>
