<?xml version="1.0" encoding="utf-8"?>
<!-- Svg Vector Icons : http://www.onlinewebfonts.com/icon -->
<!DOCTYPE svg PUBLIC "-//W3C//DTD SVG 1.1//EN" "http://www.w3.org/Graphics/SVG/1.1/DTD/svg11.dtd">
<svg version="1.1" xmlns="http://www.w3.org/2000/svg" xmlns:xlink="http://www.w3.org/1999/xlink" x="0px" y="0px" viewBox="0 0 1000 1000" enable-background="new 0 0 1000 1000" xml:space="preserve">
<metadata> Svg Vector Icons : http://www.onlinewebfonts.com/icon </metadata>
<g><g transform="translate(0.000000,511.000000) scale(0.100000,-0.100000)"><path d="M4941.8,4971c-21.8-21.8-43.6-59.4-49.5-83.2c-5.9-25.7-9.9-350.5-5.9-722.8c5.9-667.3,5.9-679.2,49.5-720.8c61.4-63.4,158.4-59.4,217.8,9.9l45.5,53.5v702.9v702.9l-49.5,47.5C5090.4,5022.5,4997.3,5026.4,4941.8,4971z"/><path d="M3328,4109.6c-53.5-51.5-61.4-114.9-23.8-180.2c51.5-89.1,540.6-603.9,586.1-615.8c108.9-27.7,219.8,73.3,194.1,176.2c-11.9,43.6-443.6,540.6-552.5,635.6C3474.6,4175,3385.4,4169,3328,4109.6z"/><path d="M6318,3824.5c-297-213.9-441.6-330.7-453.5-366.3c-43.6-116.8,69.3-241.6,180.2-198c65.3,25.7,857.4,590.1,893,635.6c39.6,53.5,29.7,152.5-21.8,200C6827,4178.9,6783.4,4159.1,6318,3824.5z"/><path d="M2664.7,3008.7c-158.4-25.7-314.8-110.9-358.4-196c-53.5-103-176.2-988.1-237.6-1722.7c-33.7-378.2-33.7-1257.4-2-1534.6c71.3-613.8,213.9-1011.9,447.5-1249.5c105-106.9,132.7-124.8,215.8-136.6c51.5-7.9,93.1-25.7,93.1-37.6c0-13.9-61.4-413.8-138.6-889.1c-75.2-475.2-138.6-869.3-138.6-875.2c0-7.9-73.3-7.9-162.4,0c-362.4,27.7-712.8-55.4-871.3-207.9c-108.9-105-132.7-190.1-93.1-332.7c69.3-251.5,514.8-493.1,1083.1-588.1c285.2-47.5,750.5-33.7,936.6,25.7c170.3,55.4,289.1,142.6,336.6,247.5c49.5,112.9,47.5,166.3-15.9,293.1c-97,188.1-358.4,346.5-756.4,459.4c-138.6,37.6-156.4,49.5-150.5,83.2c21.8,95,267.3,1661.3,267.3,1704.9c0,45.5,4,45.5,124.8,33.7c110.9-9.9,138.6-4,237.6,43.6c322.8,158.4,619.8,546.5,871.3,1138.6c215.8,510.9,455.4,1360.4,598,2124.7c19.8,105,41.6,192.1,49.5,192.1c5.9,0,37.6-130.7,67.3-291.1c75.3-382.2,245.5-1057.4,348.5-1382.1c247.5-766.3,526.7-1295,837.6-1588.1c196.1-182.2,334.7-249.5,495.1-239.6l118.8,5.9l134.6-841.6c73.3-463.4,138.6-865.3,144.6-893c9.9-49.5,3.9-53.5-156.4-93.1c-184.2-45.5-451.5-164.3-578.2-259.4c-190.1-140.6-261.4-318.8-188.1-481.2c47.5-110.9,142.6-184.2,316.8-249.5c112.9-41.6,174.2-51.5,431.7-59.4c895-27.7,1685.1,342.6,1621.7,762.4c-19.8,130.7-146.5,255.4-326.7,316.8c-172.3,59.4-447.5,91.1-647.5,75.2c-91.1-7.9-164.3-9.9-164.3-4s-61.4,400-138.6,875.2c-75.2,475.2-138.6,877.2-138.6,891.1c0,15.8,37.6,29.7,95,39.6c81.2,11.9,108.9,29.7,213.8,138.6c287.1,297,437.6,837.6,473.3,1702.9c25.7,580.2-69.3,1744.5-207.9,2574.2c-35.6,209.9-39.6,219.8-114.8,291.1c-128.7,118.8-247.5,144.6-657.4,142.6c-673.3-4-1487.1-184.2-1867.3-411.9l-112.9-69.3l-112.9,69.3C4432.9,2880,3227,3097.8,2664.7,3008.7z M3490.4,2683.9c261.4-35.6,594-104.9,841.6-180.2c194-57.4,447.5-174.2,461.4-209.9c4-13.8-15.8-158.4-45.5-322.8c-49.5-269.3-57.4-297-93.1-293.1c-75.2,9.9-2059.4,322.8-2116.8,334.6l-55.4,11.9l13.9,122.8c5.9,65.4,27.7,209.9,45.5,318.8l33.7,196l79.2,23.8C2767.6,2721.5,3217.1,2719.6,3490.4,2683.9z M7329.9,2691.8c47.5-11.9,91.1-27.7,95.1-35.6c15.8-25.7,95-617.8,85.1-627.7c-9.9-9.9-1972.2-328.7-2142.5-348.5l-59.4-5.9l-55.4,306.9l-53.5,306.9l51.5,43.6c144.6,114.8,732.7,281.2,1251.5,352.5C6743.8,2715.6,7213.1,2721.5,7329.9,2691.8z M3557.7,1535.4c578.2-91.1,1057.4-170.3,1061.4-176.2c11.9-11.9-53.5-328.7-142.6-685.1c-295-1176.2-661.4-1950.4-1053.4-2219.7c-97-67.3-124.7-69.3-421.8-17.8c-219.8,37.6-229.7,41.6-293.1,112.9c-142.6,162.4-247.5,455.4-314.8,885.1c-49.5,308.9-49.5,1334.6,0,1853.4c39.6,411.9,41.6,415.8,83.2,415.8C2492.4,1703.8,2979.5,1628.5,3557.7,1535.4z M7563.6,1670.1c5.9-19.8,25.7-196,43.5-392.1c43.6-445.5,51.5-1508.9,11.9-1782.1c-63.4-439.6-180.2-782.2-324.7-946.5c-63.4-71.3-73.3-75.3-293.1-112.9c-297-51.5-324.8-49.5-421.8,17.8c-318.8,219.8-635.6,792.1-885.1,1611.8c-132.7,427.7-334.6,1269.3-312.9,1293c11.9,11.9,2037.6,338.6,2118.8,342.6C7533.9,1703.8,7555.6,1691.9,7563.6,1670.1z M2638.9-3979.2c140.6-23.8,320.8-63.4,402-91.1c176.2-57.4,388.1-176.2,431.7-243.6c29.7-43.5,27.7-47.5-5.9-75.2c-63.4-45.5-227.7-85.1-407.9-99c-429.7-29.7-1077.2,136.6-1285.1,330.7c-73.3,67.3-69.3,97,11.9,138.6C1957.8-3933.7,2262.7-3919.9,2638.9-3979.2z M8139.8-3989.1c188.1-63.4,188.1-118.8-4-233.7c-326.7-194.1-877.2-305-1271.2-255.4c-194.1,23.8-358.4,83.2-358.4,130.7c0,35.6,116.8,128.7,237.6,190.1c150.5,77.2,299,120.8,564.3,170.3C7617-3931.7,7975.4-3931.7,8139.8-3989.1z"/><path d="M3080.5,945.4c-25.7-13.9-61.4-47.5-77.2-75.3C2932,741.4,3108.2,596.8,3233,684c93.1,65.3,71.3,227.7-37.6,265.3c-33.7,11.9-61.4,21.8-63.4,21.8C3130,971.1,3108.2,959.2,3080.5,945.4z"/><path d="M3397.3,416.7c-23.8-23.8-39.6-65.4-39.6-108.9c0-136.6,150.5-198,247.5-99c99,97,39.6,247.5-99,247.5C3462.7,456.3,3421.1,440.4,3397.3,416.7z"/><path d="M2900.3,62.2c-57.4-45.5-61.4-160.4-7.9-219.8c55.4-61.4,174.2-53.5,225.7,11.9c55.4,69.3,51.5,136.6-7.9,196C3052.8,109.7,2965.7,115.7,2900.3,62.2z"/><path d="M3270.6-436.8c-91.1-71.3-51.5-247.5,57.4-257.4c120.8-9.9,188.1,43.6,188.1,148.5c0,77.2-73.3,150.5-148.5,150.5C3343.9-395.2,3300.3-413,3270.6-436.8z"/><path d="M6791.3,949.3c-93.1-45.5-110.9-172.3-37.6-245.5c75.2-77.2,202-53.5,245.5,43.6c31.7,69.3,27.7,97-21.8,152.5C6924,959.2,6850.7,977,6791.3,949.3z"/><path d="M6387.3,416.7c-59.4-59.4-53.5-164.4,11.9-215.8c69.3-55.4,148.5-53.5,202,4c95,99,29.7,251.5-104.9,251.5C6452.7,456.3,6411.1,440.4,6387.3,416.7z"/><path d="M6892.3,50.3c-59.4-59.4-63.4-126.7-7.9-196c85.2-108.9,263.4-43.6,263.4,97C7147.7,89.9,6991.3,151.3,6892.3,50.3z"/><path d="M6537.8-436.8c-91.1-73.3-49.5-249.5,63.4-257.4c118.8-7.9,182.2,43.6,182.2,150.5c0,75.2-73.3,148.5-148.5,148.5C6611.1-395.2,6567.5-413,6537.8-436.8z"/></g></g>
</svg>