<svg width="47" height="47" viewBox="0 0 34 43" fill="none" xmlns="http://www.w3.org/2000/svg">
<path d="M29.804 0.0252047C28.2055 0.243646 26.7669 1.94916 26.419 4.12517L24.4633 16.2234C26.908 15.9294 29.4091 15.7781 31.3836 16.089L33.1889 4.99893C33.5838 2.52047 32.3427 0.260448 30.481 0.0252047C30.2459 -0.00840156 30.0296 -0.00840156 29.804 0.0252047ZM12.804 1.1006C12.569 1.10901 12.3527 1.16782 12.127 1.23503C10.3593 1.79793 9.68234 4.18398 10.6226 6.54482L15.2863 18.307C15.5872 18.0382 15.9445 17.8029 16.3394 17.7021C17.7498 17.3408 19.7056 16.9123 21.8305 16.5595L17.0164 4.46123C16.189 2.39445 14.4213 1.03339 12.804 1.1006ZM6.93677 15.6185C6.21277 15.5681 5.42295 15.7697 4.83058 16.2234C3.64585 17.1308 3.51422 18.7187 4.5297 19.7857L10.0961 25.6332C11.1115 26.6918 12.898 26.8094 14.0828 25.902C15.2675 24.9946 15.3991 23.4068 14.3837 22.3398L8.8173 16.4923C8.30956 15.963 7.66078 15.6689 6.93677 15.6185ZM28.2243 18.2398C24.971 18.1978 20.7492 19.0631 18.2952 19.4496C16.9412 19.6681 16.2078 21.0207 16.5651 22.2053C16.9036 23.3479 18.1823 23.9024 19.4987 23.8856C21.4168 23.852 26.9456 23.7512 26.9456 23.7512L27.1712 26.4397C27.1712 26.4397 16.7531 30.5061 19.4235 36.5888C13.6879 30.3044 24.3881 25.6332 24.3881 25.6332C24.3881 25.6332 21.0501 26.0616 20.7022 26.1037C19.4517 26.2549 17.5523 26.0028 17.0916 25.4315C16.9224 26.3389 16.4804 27.0362 15.5872 27.7168C14.6281 28.4477 13.4528 28.7754 12.3527 28.7249C13.0203 30.1364 12.5219 31.9343 10.9987 33.0938C9.1558 34.4968 6.25978 34.0095 5.05625 32.4216C4.23822 31.3378 2.67738 28.7585 1.89696 27.4479L5.58279 31.279C6.59828 32.3376 8.38478 32.4552 9.56951 31.5479C10.7542 30.6405 10.8859 29.0442 9.8704 27.9856L6.18456 24.1545C5.16908 23.0959 3.38258 22.9783 2.19785 23.8856C-1.96752 26.2969 0.768646 33.6819 2.42351 36.0511C5.64861 40.6552 9.73876 43.2933 17.6182 42.974C25.5634 42.6547 30.0861 39.8654 32.5872 31.4807C33.9317 26.969 35.5114 20.189 31.0827 18.6431C30.3117 18.3742 29.3056 18.2566 28.2243 18.2398Z" fill="#949494"/>
</svg>
