<svg width="144" height="160" viewBox="0 0 144 160" fill="none" xmlns="http://www.w3.org/2000/svg">
<path d="M136 144C138.122 144 140.157 144.843 141.657 146.343C143.157 147.843 144 149.878 144 152C144 154.122 143.157 156.157 141.657 157.657C140.157 159.157 138.122 160 136 160C133.878 160 131.843 159.157 130.343 157.657C128.843 156.157 128 154.122 128 152C128 149.878 128.843 147.843 130.343 146.343C131.843 144.843 133.878 144 136 144ZM104 144C106.122 144 108.157 144.843 109.657 146.343C111.157 147.843 112 149.878 112 152C112 154.122 111.157 156.157 109.657 157.657C108.157 159.157 106.122 160 104 160C101.878 160 99.8434 159.157 98.3431 157.657C96.8429 156.157 96 154.122 96 152C96 149.878 96.8429 147.843 98.3431 146.343C99.8434 144.843 101.878 144 104 144V144ZM72 144C74.1217 144 76.1566 144.843 77.6569 146.343C79.1571 147.843 80 149.878 80 152C80 154.122 79.1571 156.157 77.6569 157.657C76.1566 159.157 74.1217 160 72 160C69.8783 160 67.8434 159.157 66.3431 157.657C64.8429 156.157 64 154.122 64 152C64 149.878 64.8429 147.843 66.3431 146.343C67.8434 144.843 69.8783 144 72 144V144ZM40 144C42.1217 144 44.1566 144.843 45.6569 146.343C47.1571 147.843 48 149.878 48 152C48 154.122 47.1571 156.157 45.6569 157.657C44.1566 159.157 42.1217 160 40 160C37.8783 160 35.8434 159.157 34.3431 157.657C32.8429 156.157 32 154.122 32 152C32 149.878 32.8429 147.843 34.3431 146.343C35.8434 144.843 37.8783 144 40 144ZM8 144C10.1217 144 12.1566 144.843 13.6569 146.343C15.1571 147.843 16 149.878 16 152C16 154.122 15.1571 156.157 13.6569 157.657C12.1566 159.157 10.1217 160 8 160C5.87827 160 3.84344 159.157 2.34315 157.657C0.842854 156.157 0 154.122 0 152C0 149.878 0.842854 147.843 2.34315 146.343C3.84344 144.843 5.87827 144 8 144V144ZM24 120C26.1217 120 28.1566 120.843 29.6569 122.343C31.1571 123.843 32 125.878 32 128C32 130.122 31.1571 132.157 29.6569 133.657C28.1566 135.157 26.1217 136 24 136C21.8783 136 19.8434 135.157 18.3431 133.657C16.8429 132.157 16 130.122 16 128C16 125.878 16.8429 123.843 18.3431 122.343C19.8434 120.843 21.8783 120 24 120ZM56 120C58.1217 120 60.1566 120.843 61.6569 122.343C63.1571 123.843 64 125.878 64 128C64 130.122 63.1571 132.157 61.6569 133.657C60.1566 135.157 58.1217 136 56 136C53.8783 136 51.8434 135.157 50.3431 133.657C48.8429 132.157 48 130.122 48 128C48 125.878 48.8429 123.843 50.3431 122.343C51.8434 120.843 53.8783 120 56 120V120ZM88 120C90.1217 120 92.1566 120.843 93.6569 122.343C95.1571 123.843 96 125.878 96 128C96 130.122 95.1571 132.157 93.6569 133.657C92.1566 135.157 90.1217 136 88 136C85.8783 136 83.8434 135.157 82.3431 133.657C80.8429 132.157 80 130.122 80 128C80 125.878 80.8429 123.843 82.3431 122.343C83.8434 120.843 85.8783 120 88 120V120ZM120 120C122.122 120 124.157 120.843 125.657 122.343C127.157 123.843 128 125.878 128 128C128 130.122 127.157 132.157 125.657 133.657C124.157 135.157 122.122 136 120 136C117.878 136 115.843 135.157 114.343 133.657C112.843 132.157 112 130.122 112 128C112 125.878 112.843 123.843 114.343 122.343C115.843 120.843 117.878 120 120 120ZM40 96C42.1217 96 44.1566 96.8428 45.6569 98.3431C47.1571 99.8434 48 101.878 48 104C48 106.122 47.1571 108.157 45.6569 109.657C44.1566 111.157 42.1217 112 40 112C37.8783 112 35.8434 111.157 34.3431 109.657C32.8429 108.157 32 106.122 32 104C32 101.878 32.8429 99.8434 34.3431 98.3431C35.8434 96.8428 37.8783 96 40 96ZM72 96C74.1217 96 76.1566 96.8428 77.6569 98.3431C79.1571 99.8434 80 101.878 80 104C80 106.122 79.1571 108.157 77.6569 109.657C76.1566 111.157 74.1217 112 72 112C69.8783 112 67.8434 111.157 66.3431 109.657C64.8429 108.157 64 106.122 64 104C64 101.878 64.8429 99.8434 66.3431 98.3431C67.8434 96.8428 69.8783 96 72 96V96ZM104 96C106.122 96 108.157 96.8428 109.657 98.3431C111.157 99.8434 112 101.878 112 104C112 106.122 111.157 108.157 109.657 109.657C108.157 111.157 106.122 112 104 112C101.878 112 99.8434 111.157 98.3431 109.657C96.8429 108.157 96 106.122 96 104C96 101.878 96.8429 99.8434 98.3431 98.3431C99.8434 96.8428 101.878 96 104 96V96ZM128 80H16V64H128V80ZM119.36 56H24.64C28 36 44 20 64 16.64V0H80V16.64C100 20 116 36 119.36 56Z" fill="black"/>
</svg>
