<?xml version="1.0" standalone="no"?>
<!DOCTYPE svg PUBLIC "-//W3C//DTD SVG 20010904//EN"
 "http://www.w3.org/TR/2001/REC-SVG-20010904/DTD/svg10.dtd">
<svg version="1.0" xmlns="http://www.w3.org/2000/svg"
 width="512.000000pt" height="512.000000pt" viewBox="0 0 512.000000 512.000000"
 preserveAspectRatio="xMidYMid meet">
<metadata>
Created by potrace 1.16, written by Peter Selinger 2001-2019
</metadata>
<g transform="translate(0.000000,512.000000) scale(0.100000,-0.100000)"
fill="#1C2842" stroke="none">
<path d="M4640 5109 c-362 -37 -840 -162 -1200 -314 -701 -296 -1261 -695
-1829 -1300 -772 -823 -1355 -1723 -1546 -2387 -48 -163 -65 -274 -65 -413 l0
-120 289 -289 289 -289 148 6 c286 10 569 98 974 303 769 388 1735 1160 2303
1839 522 624 889 1365 1042 2105 55 269 75 451 75 696 l0 174 -197 -1 c-109
-1 -236 -6 -283 -10z m-2177 -2411 l-2063 -2063 -39 39 c-46 45 -46 49 -10
229 165 810 1254 2293 2214 3013 487 366 1021 625 1590 770 111 29 319 72 350
73 13 1 -716 -735 -2042 -2061z m2281 1726 c-71 -412 -246 -898 -464 -1294
-295 -536 -664 -981 -1221 -1471 -799 -704 -1636 -1209 -2175 -1312 -162 -31
-166 -31 -210 14 l-39 39 2060 2060 c1132 1132 2060 2058 2062 2056 1 -1 -4
-43 -13 -92z"/>
</g>
</svg>
