<svg width="47" height="47" viewBox="0 0 40 36" fill="none" xmlns="http://www.w3.org/2000/svg">
<path d="M19.7456 1.96447C19.03 2.57113 18.4678 3.36447 18.4678 3.69113C18.5189 6.44447 21.0744 8.26447 23.5789 7.33113C27.5655 5.8378 26.0322 0.844466 21.6367 0.797799C21.2789 0.797799 20.41 1.31113 19.7456 1.96447Z" fill="#949494"/>
<path d="M5.1773 7.09891C4.15508 8.21891 5.33063 9.01225 8.90841 9.61891C10.6462 9.94558 12.9462 10.4122 13.9684 10.6456L15.9106 11.1122L14.0706 14.4256C12.0262 18.1589 12.0262 18.9522 14.4284 22.0789C15.2462 23.1522 15.9106 24.2722 15.9106 24.5056C15.9106 25.1122 12.4351 27.8656 11.6684 27.8656C10.7995 27.8656 7.57952 29.7322 7.88619 30.0122C8.03953 30.1522 9.41953 29.9189 11.004 29.4522C13.7129 28.6589 13.9684 28.6589 16.9329 29.4989C19.8973 30.3389 20.1018 30.3389 23.0662 29.4989C26.0306 28.6589 26.2862 28.6589 28.9951 29.4522C30.5795 29.9189 32.3684 30.1522 32.9818 30.0122C34.7707 29.5922 37.0707 27.6322 36.7129 26.7922C36.3551 25.9522 33.3907 25.0656 30.9373 25.0656C29.5573 25.0656 29.1995 24.7856 28.3818 23.1056C27.7684 21.8456 26.3373 20.3989 24.2418 18.8589L21.0218 16.5722L22.2995 14.6589C23.1684 13.3522 23.884 12.7456 24.4973 12.8389C24.9573 12.9322 27.5129 13.1189 30.0684 13.2589C34.1573 13.4922 34.8729 13.3989 35.1284 12.7456C35.7418 11.2522 34.3618 10.5989 30.7329 10.5989C28.484 10.5989 23.3218 9.85225 16.5751 8.49891C10.7484 7.33225 5.94397 6.39891 5.89286 6.39891C5.84175 6.39891 5.53508 6.72558 5.1773 7.09891ZM22.6573 22.0322C23.6284 22.4056 24.804 23.1989 25.264 23.8056C26.0818 24.9256 26.0818 24.9256 23.7306 25.2522C19.744 25.7189 19.744 25.7656 19.6929 23.4322C19.5906 21.0989 19.8973 20.9589 22.6573 22.0322Z" fill="#949494"/>
<path d="M0.52424 32.3454C-0.0379819 32.9987 0.0131292 33.2321 0.98424 33.9321C1.59757 34.4454 3.43757 35.0521 5.02202 35.3787C7.42424 35.8921 8.34424 35.8454 10.8487 35.2854C13.5576 34.6321 14.1709 34.6321 16.9309 35.2854C19.6909 35.9387 20.3042 35.9387 23.0642 35.2854C25.8242 34.6321 26.4376 34.6321 29.1465 35.2854C31.6509 35.8454 32.5709 35.8921 34.9731 35.3787C36.5576 35.0521 38.3976 34.3987 39.0109 33.9321C40.0842 33.1387 40.1353 32.9987 39.3687 32.2987C38.6531 31.6454 38.3976 31.6454 36.4042 32.2987C33.5931 33.1854 30.9353 33.1854 28.2265 32.2987C26.3865 31.7387 25.8753 31.7387 24.0353 32.2987C22.8598 32.6721 21.0709 32.9987 19.9976 32.9987C18.9242 32.9987 17.1353 32.6721 15.9598 32.2987C14.1198 31.7387 13.6087 31.7387 11.7687 32.2987C9.05979 33.1854 6.40202 33.1854 3.64202 32.2987C1.03535 31.4587 1.34202 31.4587 0.52424 32.3454Z" fill="#949494"/>
</svg>
