<svg width="12" height="12" viewBox="0 0 12 12" fill="none" xmlns="http://www.w3.org/2000/svg">
<path fill-rule="evenodd" clip-rule="evenodd" d="M6 0C2.686 0 0 2.6865 0 6C0 9.3135 2.686 12 6 12C9.3135 12 12 9.3135 12 6C12 2.6865 9.3135 0 6 0ZM6.07 9.509C4.136 9.509 2.57 7.939 2.57 6C2.57 4.061 4.136 2.491 6.07 2.491C7.015 2.491 7.805 2.8395 8.411 3.4055L7.424 4.3945V4.3925C7.0565 4.0415 6.5905 3.8615 6.07 3.8615C4.915 3.8615 3.9765 4.8395 3.9765 5.998C3.9765 7.1555 4.915 8.1365 6.07 8.1365C7.118 8.1365 7.831 7.5355 7.978 6.7105H6.07V5.342H9.3625C9.4065 5.577 9.43 5.822 9.43 6.079C9.43 8.084 8.0915 9.509 6.07 9.509Z" fill="white"/>
</svg>
