<?xml version="1.0" standalone="no"?>
<!DOCTYPE svg PUBLIC "-//W3C//DTD SVG 20010904//EN"
 "http://www.w3.org/TR/2001/REC-SVG-20010904/DTD/svg10.dtd">
<svg version="1.0" xmlns="http://www.w3.org/2000/svg"
 width="500.000000pt" height="500.000000pt" viewBox="0 0 500.000000 500.000000"
 preserveAspectRatio="xMidYMid meet">

<g transform="translate(0.000000,500.000000) scale(0.100000,-0.100000)"
fill="#000000" stroke="none">
<path d="M2177 4986 c-78 -21 -116 -60 -172 -174 l-50 -102 -90 0 c-184 -1
-325 -53 -437 -161 -77 -76 -137 -167 -275 -414 -55 -99 -143 -257 -196 -352
-53 -94 -101 -190 -107 -213 -20 -73 12 -165 74 -217 33 -26 175 -93 365 -171
147 -60 233 -36 327 91 l46 62 -5 -150 c-6 -156 -32 -321 -67 -416 -10 -30
-40 -112 -65 -184 -50 -139 -99 -353 -116 -501 -15 -141 20 -805 67 -1244 31
-298 93 -699 113 -739 25 -49 72 -88 114 -96 18 -3 152 -5 299 -3 l267 3 35
34 c59 57 66 83 87 324 31 358 99 971 112 1021 7 24 74 -563 111 -972 17 -183
30 -283 41 -305 22 -45 60 -85 90 -97 15 -6 141 -10 293 -10 234 0 271 2 301
18 58 29 89 79 106 165 24 128 85 593 95 732 5 72 18 236 29 365 31 355 44
728 31 836 -21 171 -84 411 -145 559 -65 155 -94 299 -102 510 l-5 150 46 -62
c94 -127 180 -151 327 -91 190 78 332 145 365 171 63 52 94 144 74 218 -6 23
-56 120 -111 216 -54 96 -99 177 -99 180 0 10 -224 400 -263 458 -129 191
-305 284 -542 285 l-90 1 -50 102 c-57 117 -101 158 -185 176 -74 16 -581 13
-643 -3z m633 -401 l62 -145 153 0 c84 0 176 -5 205 -10 62 -12 155 -53 188
-84 26 -23 115 -168 127 -206 4 -12 29 -59 55 -104 88 -151 280 -489 278 -491
-2 0 -63 -26 -136 -57 l-133 -57 -26 37 c-264 384 -271 392 -350 392 -24 0
-57 -7 -73 -15 -34 -18 -70 -81 -70 -123 l0 -29 -103 -5 c-164 -9 -248 -56
-308 -174 l-34 -68 -5 -390 -5 -391 -65 -166 -65 -166 -53 136 c-84 216 -82
200 -82 597 0 385 -1 391 -61 485 -60 91 -139 129 -286 137 l-103 5 0 30 c0
40 -39 106 -72 123 -42 22 -110 18 -148 -8 -19 -13 -76 -84 -128 -158 -51 -74
-98 -136 -103 -138 -5 -2 -9 -9 -9 -16 0 -7 -13 -31 -30 -54 l-29 -41 -133 57
c-73 31 -134 57 -136 57 -3 2 218 390 273 480 24 39 44 76 44 84 1 19 97 185
128 222 31 37 130 85 203 99 29 5 121 10 205 10 l153 0 62 145 62 145 243 0
243 0 62 -145z m-724 -1179 c18 -14 19 -31 22 -355 l3 -341 -25 -10 c-13 -5
-87 -51 -164 -103 l-139 -95 40 107 c61 165 88 333 94 594 l5 217 72 0 c47 0
79 -5 92 -14z m1007 -198 c6 -300 28 -425 110 -640 l26 -67 -140 95 c-77 52
-152 99 -165 104 l-25 10 3 341 c3 397 -5 369 114 369 l72 0 5 -212z m-876
-860 c19 -46 46 -117 60 -158 14 -41 39 -110 54 -153 16 -43 29 -84 29 -91 0
-6 -11 -34 -24 -62 -52 -106 -161 -896 -212 -1536 l-7 -88 -143 0 -142 0 -6
27 c-28 140 -107 800 -131 1108 -18 225 -31 636 -21 687 6 33 18 43 134 120
70 47 159 103 197 126 39 22 93 56 120 75 28 19 52 33 54 31 2 -1 19 -40 38
-86z m830 -46 c40 -22 78 -46 85 -52 7 -6 56 -39 108 -73 l95 -63 -1 -244 c-2
-259 -19 -518 -60 -895 -24 -223 -78 -631 -90 -688 l-6 -27 -143 0 -143 0 -7
88 c-33 423 -102 998 -151 1265 -19 103 -34 195 -34 203 0 8 -11 40 -25 70
-14 30 -25 59 -25 64 0 5 10 38 23 72 13 35 34 95 46 133 13 39 40 111 61 160
20 50 40 98 44 108 5 16 15 12 78 -31 40 -27 105 -67 145 -90z"/>
</g>
</svg>
