<svg width="47" height="47" viewBox="0 0 47 47" fill="none" xmlns="http://www.w3.org/2000/svg">
<path fill-rule="evenodd" clip-rule="evenodd" d="M23.4232 0.15625C10.5262 0.15625 0.0732422 10.6298 0.0732422 23.5474C0.0732422 36.4651 10.5291 46.9386 23.4232 46.9386C36.3174 46.9386 46.7732 36.4651 46.7732 23.5474C46.7732 10.6298 36.3203 0.15625 23.4232 0.15625ZM21.9703 6.01507C24.435 6.01507 26.4379 7.9386 26.4379 10.3092C26.4379 12.6798 24.435 14.6033 21.9703 14.6033C19.4997 14.6033 17.5027 12.6798 17.5027 10.3092C17.5027 7.9386 19.4997 6.01507 21.9703 6.01507ZM23.5732 43.8474C14.5997 43.8474 6.82912 32.1121 23.7674 23.4827C39.2262 15.6121 32.0115 2.1886 23.5732 2.96507C36.4409 2.96507 43.9821 12.1151 43.9821 23.4062C43.985 34.6974 34.8438 43.8474 23.5732 43.8474Z" fill="#949494"/>
<path d="M24.9205 37.9121C27.3457 37.9121 29.3117 36.0093 29.3117 33.6621C29.3117 31.3149 27.3457 29.4121 24.9205 29.4121C22.4953 29.4121 20.5293 31.3149 20.5293 33.6621C20.5293 36.0093 22.4953 37.9121 24.9205 37.9121Z" fill="#949494"/>
</svg>
